<svg id="bold" height="512" viewBox="0 0 24 24" width="512" xmlns="http://www.w3.org/2000/svg"><path d="m18.5 24c-.192 0-.384-.073-.53-.22l-4.75-4.75c-.214-.214-.279-.537-.163-.817s.39-.463.693-.463h2.25v-4.5c0-.689.561-1.25 1.25-1.25h2.5c.689 0 1.25.561 1.25 1.25v4.5h2.25c.303 0 .577.183.693.463s.052.603-.163.817l-4.75 4.75c-.146.147-.338.22-.53.22z"/><path d="m21 3h-18c-1.65 0-3 1.35-3 3v12c0 1.65 1.35 3 3 3h9.37l-.56-.56c-.41-.4-.66-.9-.76-1.44h-8.05c-.55 0-1-.45-1-1v-12c0-.55.45-1 1-1h18c.55 0 1 .45 1 1v4.9c.61.6 1 1.43 1 2.35v2.5h.25c.26 0 .51.04.75.11v-9.86c0-1.65-1.35-3-3-3z"/><path d="m7.25 8h-6c-.414 0-.75.336-.75.75v6.5c0 .414.336.75.75.75h6c1.517 0 2.75-1.233 2.75-2.75v-2.5c0-1.517-1.233-2.75-2.75-2.75zm-1.25 6c-1.105 0-2-.895-2-2s.895-2 2-2 2 .895 2 2-.895 2-2 2z"/></svg>